<svg width="67" height="68" viewBox="0 0 67 68" fill="none" xmlns="http://www.w3.org/2000/svg">
<path fill-rule="evenodd" clip-rule="evenodd" d="M31.8852 17.1617H32.7393L33.2928 14.4957H34.5342L35.0968 17.1617H35.9244L36.5713 14.2302H37.7546L37.0813 17.1617H37.6175C37.734 17.1617 37.8069 17.2022 37.836 17.28C37.8681 17.3608 37.8827 17.4821 37.8827 17.6466C37.8827 17.811 37.8651 17.9351 37.836 18.0129C37.804 18.0937 37.7311 18.1313 37.6175 18.1313H36.8656L36.4432 19.9953C36.3908 20.2233 36.2944 20.3819 36.1487 20.4685C36.0059 20.555 35.8049 20.6012 35.5456 20.6012C35.4466 20.6012 35.3503 20.5926 35.2571 20.5753C35.1638 20.5579 35.0734 20.5262 34.9947 20.48C34.916 20.4339 34.8432 20.3733 34.7821 20.2954C34.7209 20.2175 34.6772 20.1222 34.648 20.0097L34.2428 18.1285H33.5697L33.1733 20.0097C33.1442 20.1337 33.1034 20.2347 33.0481 20.3126C32.9927 20.3905 32.9256 20.4483 32.844 20.4916C32.7625 20.5348 32.6751 20.5639 32.5819 20.5784C32.4887 20.5928 32.3865 20.5984 32.2845 20.5984C32.0252 20.5984 31.8213 20.5551 31.6727 20.4656C31.5211 20.3762 31.422 20.2204 31.3696 19.9925L30.9469 18.1285H30.0232L30.0203 18.1369V17.1617H30.7196L30.0639 14.2302H31.2384L31.8852 17.1617ZM35.3037 18.1369C35.327 18.2408 35.3474 18.3536 35.3678 18.4748L35.429 18.8383C35.4493 18.9595 35.4667 19.0692 35.4813 19.1731C35.4959 19.2769 35.5075 19.3549 35.5192 19.4126H35.5368V19.4095C35.5485 19.3403 35.5601 19.2508 35.5747 19.1412C35.5892 19.0287 35.6039 18.9133 35.6213 18.7893C35.6388 18.6681 35.6562 18.5468 35.6737 18.4314C35.6912 18.3131 35.7089 18.2177 35.7263 18.1369H35.3037ZM32.101 18.1369C32.1184 18.235 32.1361 18.3419 32.1565 18.4573C32.1769 18.5756 32.1942 18.6912 32.2117 18.8124C32.2291 18.9307 32.2438 19.0432 32.2555 19.15C32.2671 19.2567 32.2788 19.3432 32.2905 19.4095H32.3079C32.3195 19.3403 32.3341 19.2537 32.3545 19.144C32.3749 19.0373 32.3953 18.9189 32.4186 18.7977C32.4419 18.6766 32.4622 18.5525 32.4826 18.4342C32.503 18.3159 32.5206 18.2149 32.5381 18.1341H32.0981L32.101 18.1369ZM33.9135 15.9815C33.896 16.1229 33.8756 16.3077 33.8523 16.5299C33.829 16.752 33.7998 16.9626 33.7678 17.1617H34.0535C34.0419 17.0694 34.0302 16.9712 34.0185 16.8616C34.0069 16.7548 33.9952 16.6451 33.9835 16.5355C33.9719 16.4288 33.9602 16.325 33.9485 16.227C33.9369 16.1289 33.9252 16.048 33.9135 15.9787V15.9815Z" fill="#1D1D1B"></path>
<path fill-rule="evenodd" clip-rule="evenodd" d="M31.8852 17.1617H32.7393L33.2928 14.4957H34.5342L35.0968 17.1617H35.9244L36.5713 14.2302H37.7546L37.0813 17.1617H37.6175C37.734 17.1617 37.8069 17.2022 37.836 17.28C37.8681 17.3608 37.8827 17.4821 37.8827 17.6466C37.8827 17.811 37.8651 17.9351 37.836 18.0129C37.804 18.0937 37.7311 18.1313 37.6175 18.1313H36.8656L36.4432 19.9953C36.3908 20.2233 36.2944 20.3819 36.1487 20.4685C36.0059 20.555 35.8049 20.6012 35.5456 20.6012C35.4466 20.6012 35.3503 20.5926 35.2571 20.5753C35.1638 20.5579 35.0734 20.5262 34.9947 20.48C34.916 20.4339 34.8432 20.3733 34.7821 20.2954C34.7209 20.2175 34.6772 20.1222 34.648 20.0097L34.2428 18.1285H33.5697L33.1733 20.0097C33.1442 20.1337 33.1034 20.2347 33.0481 20.3126C32.9927 20.3905 32.9256 20.4483 32.844 20.4916C32.7625 20.5348 32.6751 20.5639 32.5819 20.5784C32.4887 20.5928 32.3865 20.5984 32.2845 20.5984C32.0252 20.5984 31.8213 20.5551 31.6727 20.4656C31.5211 20.3762 31.422 20.2204 31.3696 19.9925L30.9469 18.1285H30.0232L30.0203 18.1369V17.1617H30.7196L30.0639 14.2302H31.2384L31.8852 17.1617ZM35.3037 18.1369C35.327 18.2408 35.3474 18.3536 35.3678 18.4748L35.429 18.8383C35.4493 18.9595 35.4667 19.0692 35.4813 19.1731C35.4959 19.2769 35.5075 19.3549 35.5192 19.4126H35.5368V19.4095C35.5485 19.3403 35.5601 19.2508 35.5747 19.1412C35.5892 19.0287 35.6039 18.9133 35.6213 18.7893C35.6388 18.6681 35.6562 18.5468 35.6737 18.4314C35.6912 18.3131 35.7089 18.2177 35.7263 18.1369H35.3037ZM32.101 18.1369C32.1184 18.235 32.1361 18.3419 32.1565 18.4573C32.1769 18.5756 32.1942 18.6912 32.2117 18.8124C32.2291 18.9307 32.2438 19.0432 32.2555 19.15C32.2671 19.2567 32.2788 19.3432 32.2905 19.4095H32.3079C32.3195 19.3403 32.3341 19.2537 32.3545 19.144C32.3749 19.0373 32.3953 18.9189 32.4186 18.7977C32.4419 18.6766 32.4622 18.5525 32.4826 18.4342C32.503 18.3159 32.5206 18.2149 32.5381 18.1341H32.0981L32.101 18.1369ZM33.9135 15.9815C33.896 16.1229 33.8756 16.3077 33.8523 16.5299C33.829 16.752 33.7998 16.9626 33.7678 17.1617H34.0535C34.0419 17.0694 34.0302 16.9712 34.0185 16.8616C34.0069 16.7548 33.9952 16.6451 33.9835 16.5355C33.9719 16.4288 33.9602 16.325 33.9485 16.227C33.9369 16.1289 33.9252 16.048 33.9135 15.9787V15.9815Z" fill="url(#paint0_linear_1080_6433)"></path>
<path fill-rule="evenodd" clip-rule="evenodd" d="M33.9545 10C38.0926 10.0001 41.4469 13.3213 41.4469 17.4187C41.4469 20.6077 39.4147 23.3261 36.5628 24.3749L36.5001 25C36.5001 25.3179 35.9615 25.5788 35.668 25.5788H35.5825V32.2038C35.795 32.2605 35.9514 32.452 35.9514 32.6805V35.3438C35.9514 34.8082 36.2072 36 35.1011 36H32.863C32.1731 36 32.0127 35.6225 32.0127 35.158V32.6805C32.0127 32.4556 32.164 32.2663 32.3713 32.2063V25.5788H32.241C31.9475 25.5788 31.3696 25.4117 31.3696 25.0938L31.3462 24.3752C28.4941 23.3265 26.4621 20.6079 26.4621 17.4187C26.4621 13.3212 29.8163 10 33.9545 10ZM33.6257 32.1864H34.3281V25.7033H33.6257V32.1864ZM33.9545 11.4428C30.6265 11.4428 27.9192 14.1234 27.9192 17.4187C27.9192 20.7139 30.6265 23.3946 33.9545 23.3946C37.2824 23.3945 39.9898 20.7139 39.9898 17.4187C39.9898 14.1234 37.2824 11.4428 33.9545 11.4428Z" fill="#1D1D1B"></path>
<path fill-rule="evenodd" clip-rule="evenodd" d="M33.9545 10C38.0926 10.0001 41.4469 13.3213 41.4469 17.4187C41.4469 20.6077 39.4147 23.3261 36.5628 24.3749L36.5001 25C36.5001 25.3179 35.9615 25.5788 35.668 25.5788H35.5825V32.2038C35.795 32.2605 35.9514 32.452 35.9514 32.6805V35.3438C35.9514 34.8082 36.2072 36 35.1011 36H32.863C32.1731 36 32.0127 35.6225 32.0127 35.158V32.6805C32.0127 32.4556 32.164 32.2663 32.3713 32.2063V25.5788H32.241C31.9475 25.5788 31.3696 25.4117 31.3696 25.0938L31.3462 24.3752C28.4941 23.3265 26.4621 20.6079 26.4621 17.4187C26.4621 13.3212 29.8163 10 33.9545 10ZM33.6257 32.1864H34.3281V25.7033H33.6257V32.1864ZM33.9545 11.4428C30.6265 11.4428 27.9192 14.1234 27.9192 17.4187C27.9192 20.7139 30.6265 23.3946 33.9545 23.3946C37.2824 23.3945 39.9898 20.7139 39.9898 17.4187C39.9898 14.1234 37.2824 11.4428 33.9545 11.4428Z" fill="url(#paint1_linear_1080_6433)"></path>
<path d="M43.3074 29.6686C43.6991 29.2808 44.3377 29.2758 44.7336 29.6678C45.1295 30.0598 45.1244 30.6921 44.7328 31.08L44.2332 31.574L44.7412 32.077C45.1328 32.4648 45.138 33.0971 44.7421 33.4892C44.3461 33.8812 43.7075 33.8759 43.3158 33.4881L42.8163 32.9935L42.3078 33.4975C41.9161 33.8853 41.2775 33.8904 40.8815 33.4984C40.4856 33.1063 40.4907 32.474 40.8824 32.0862L41.3808 31.5924L40.87 31.0867C40.4784 30.6988 40.4733 30.0665 40.8692 29.6745C41.2651 29.2825 41.9037 29.2878 42.2954 29.6756L42.7977 30.173L43.3074 29.6686Z" fill="#1D1D1B"></path>
<path d="M43.3074 29.6686C43.6991 29.2808 44.3377 29.2758 44.7336 29.6678C45.1295 30.0598 45.1244 30.6921 44.7328 31.08L44.2332 31.574L44.7412 32.077C45.1328 32.4648 45.138 33.0971 44.7421 33.4892C44.3461 33.8812 43.7075 33.8759 43.3158 33.4881L42.8163 32.9935L42.3078 33.4975C41.9161 33.8853 41.2775 33.8904 40.8815 33.4984C40.4856 33.1063 40.4907 32.474 40.8824 32.0862L41.3808 31.5924L40.87 31.0867C40.4784 30.6988 40.4733 30.0665 40.8692 29.6745C41.2651 29.2825 41.9037 29.2878 42.2954 29.6756L42.7977 30.173L43.3074 29.6686Z" fill="url(#paint2_linear_1080_6433)"></path>
<path d="M25.0785 24.0569C25.6595 24.0569 26.1242 24.5246 26.1242 25.0938V25.8193H26.8719C27.4468 25.8193 27.9191 26.2795 27.9191 26.8548C27.9191 27.4301 27.4467 27.8902 26.8719 27.8902H26.1391V28.6309C26.1391 29.2 25.6744 29.6677 25.0934 29.6678C24.5123 29.6678 24.0476 29.2 24.0476 28.6309V27.9053H23.2996C22.7248 27.9053 22.2525 27.445 22.2524 26.8698C22.2524 26.2945 22.7248 25.8344 23.2996 25.8344H24.0327V25.0938C24.0327 24.5246 24.4974 24.0569 25.0785 24.0569Z" fill="#1D1D1B"></path>
<path d="M25.0785 24.0569C25.6595 24.0569 26.1242 24.5246 26.1242 25.0938V25.8193H26.8719C27.4468 25.8193 27.9191 26.2795 27.9191 26.8548C27.9191 27.4301 27.4467 27.8902 26.8719 27.8902H26.1391V28.6309C26.1391 29.2 25.6744 29.6677 25.0934 29.6678C24.5123 29.6678 24.0476 29.2 24.0476 28.6309V27.9053H23.2996C22.7248 27.9053 22.2525 27.445 22.2524 26.8698C22.2524 26.2945 22.7248 25.8344 23.2996 25.8344H24.0327V25.0938C24.0327 24.5246 24.4974 24.0569 25.0785 24.0569Z" fill="url(#paint3_linear_1080_6433)"></path>
<path d="M30.6447 44.202H32.0167V51.454H30.6447V50.894H28.2927V50.026H30.6447V44.202ZM21.7407 48.752C24.1347 48.752 27.1167 48.738 29.7627 48.458L29.8467 49.326C28.6987 49.494 27.5087 49.592 26.3467 49.648V51.482H24.9747V49.704C23.8967 49.732 22.8467 49.732 21.9087 49.732L21.7407 48.752ZM23.5887 51.874H32.0167V54.562H24.9747V55.5H32.3947V56.48H23.6027V53.68H30.6587V52.84H23.5887V51.874ZM25.7167 44.412C27.5647 44.412 28.7827 45.126 28.7827 46.274C28.7827 47.422 27.5647 48.122 25.7167 48.122C23.8827 48.122 22.6507 47.422 22.6507 46.274C22.6507 45.126 23.8827 44.412 25.7167 44.412ZM25.7167 45.35C24.6387 45.35 23.9387 45.7 23.9387 46.274C23.9387 46.862 24.6387 47.212 25.7167 47.212C26.8087 47.212 27.5087 46.862 27.5087 46.274C27.5087 45.7 26.8087 45.35 25.7167 45.35ZM35.153 51.272H36.497V52.784H42.181V51.272H43.539V56.452H35.153V51.272ZM36.497 53.848V55.346H42.181V53.848H36.497ZM35.153 44.734H43.553V45.686C43.553 46.652 43.553 47.702 43.245 49.172H44.967V50.306H33.739V49.172H41.887C42.195 47.8 42.209 46.778 42.209 45.854H35.153V44.734Z" fill="#5F79FF"></path>
<defs>
<linearGradient id="paint0_linear_1080_6433" x1="30.8533" y1="23.8252" x2="49.6012" y2="29.8217" gradientUnits="userSpaceOnUse">
<stop stop-color="#5F79FF"></stop>
<stop offset="1" stop-color="#5DD3C9"></stop>
</linearGradient>
<linearGradient id="paint1_linear_1080_6433" x1="30.8533" y1="23.8252" x2="49.6012" y2="29.8217" gradientUnits="userSpaceOnUse">
<stop stop-color="#5F79FF"></stop>
<stop offset="1" stop-color="#5DD3C9"></stop>
</linearGradient>
<linearGradient id="paint2_linear_1080_6433" x1="30.8533" y1="23.8252" x2="49.6012" y2="29.8217" gradientUnits="userSpaceOnUse">
<stop stop-color="#5F79FF"></stop>
<stop offset="1" stop-color="#5DD3C9"></stop>
</linearGradient>
<linearGradient id="paint3_linear_1080_6433" x1="30.8533" y1="23.8252" x2="49.6012" y2="29.8217" gradientUnits="userSpaceOnUse">
<stop stop-color="#5F79FF"></stop>
<stop offset="1" stop-color="#5DD3C9"></stop>
</linearGradient>
</defs>
</svg>