<svg width="67" height="68" viewBox="0 0 67 68" fill="none" xmlns="http://www.w3.org/2000/svg">
<path fill-rule="evenodd" clip-rule="evenodd" d="M32.9999 10C39.6273 10 44.9999 15.2976 45 21.8325C45 25.6929 43.1248 29.1211 40.2239 31.281V34.5554C40.2239 35.0561 39.7282 35.4294 39.3306 35.6537C38.8491 35.9277 38.3197 36.1047 37.788 36.2583C36.3532 36.6763 34.8706 36.9574 33.3737 36.9952H33.3234C33.2156 36.9999 33.1053 37 32.9975 37C32.8898 37 32.7795 36.9975 32.6717 36.9952H32.6214C31.1245 36.9574 29.6418 36.6763 28.2071 36.2583C27.6778 36.1024 27.1462 35.9253 26.6648 35.6537C26.2671 35.4294 25.7712 35.0585 25.7712 34.5554V31.2773C22.8731 29.1172 21 25.6907 21 21.8325C21.0001 15.2976 26.3726 10 32.9999 10ZM33.2672 16.9733C33.1211 16.8292 32.8818 16.8274 32.7316 16.9746L28.0733 21.5677C28.0735 21.5725 28.0743 21.5776 28.0743 21.5824V30.6894C28.0743 30.7088 28.0769 30.7277 28.0813 30.7459H30.7665V27.5176C30.7665 26.7536 31.3944 26.13 32.1737 26.13H33.8239C34.5987 26.1301 35.2311 26.7491 35.2311 27.5176V30.7459H37.9164C37.9208 30.7277 37.9234 30.7088 37.9234 30.6894V21.5824C37.9234 21.5767 37.9239 21.5708 37.9241 21.5651L33.2672 16.9733ZM32.1737 27.2754C32.0381 27.2754 31.9284 27.3841 31.9284 27.5176V30.7459H34.0695V27.5176C34.0695 27.3839 33.9593 27.2755 33.8239 27.2754H32.1737ZM32.9999 11.1809C27.034 11.1809 22.1977 15.9498 22.1976 21.8325C22.1976 25.4887 24.0662 28.7142 26.9127 30.6324V22.7124L25.7869 23.8224C25.5601 24.0461 25.1923 24.046 24.9654 23.8224C24.7386 23.5988 24.7386 23.2361 24.9654 23.0124L31.9115 16.1632L31.9129 16.1621C32.5148 15.5724 33.4875 15.5704 34.0887 16.1632L41.0348 23.0124C41.2615 23.2361 41.2616 23.5988 41.0348 23.8224C40.808 24.0461 40.4402 24.046 40.2133 23.8224L39.0852 22.71V30.6338C41.9329 28.7157 43.8024 25.4895 43.8024 21.8325C43.8023 15.9497 38.9658 11.1809 32.9999 11.1809Z" fill="#343537"></path>
<path fill-rule="evenodd" clip-rule="evenodd" d="M32.9999 10C39.6273 10 44.9999 15.2976 45 21.8325C45 25.6929 43.1248 29.1211 40.2239 31.281V34.5554C40.2239 35.0561 39.7282 35.4294 39.3306 35.6537C38.8491 35.9277 38.3197 36.1047 37.788 36.2583C36.3532 36.6763 34.8706 36.9574 33.3737 36.9952H33.3234C33.2156 36.9999 33.1053 37 32.9975 37C32.8898 37 32.7795 36.9975 32.6717 36.9952H32.6214C31.1245 36.9574 29.6418 36.6763 28.2071 36.2583C27.6778 36.1024 27.1462 35.9253 26.6648 35.6537C26.2671 35.4294 25.7712 35.0585 25.7712 34.5554V31.2773C22.8731 29.1172 21 25.6907 21 21.8325C21.0001 15.2976 26.3726 10 32.9999 10ZM33.2672 16.9733C33.1211 16.8292 32.8818 16.8274 32.7316 16.9746L28.0733 21.5677C28.0735 21.5725 28.0743 21.5776 28.0743 21.5824V30.6894C28.0743 30.7088 28.0769 30.7277 28.0813 30.7459H30.7665V27.5176C30.7665 26.7536 31.3944 26.13 32.1737 26.13H33.8239C34.5987 26.1301 35.2311 26.7491 35.2311 27.5176V30.7459H37.9164C37.9208 30.7277 37.9234 30.7088 37.9234 30.6894V21.5824C37.9234 21.5767 37.9239 21.5708 37.9241 21.5651L33.2672 16.9733ZM32.1737 27.2754C32.0381 27.2754 31.9284 27.3841 31.9284 27.5176V30.7459H34.0695V27.5176C34.0695 27.3839 33.9593 27.2755 33.8239 27.2754H32.1737ZM32.9999 11.1809C27.034 11.1809 22.1977 15.9498 22.1976 21.8325C22.1976 25.4887 24.0662 28.7142 26.9127 30.6324V22.7124L25.7869 23.8224C25.5601 24.0461 25.1923 24.046 24.9654 23.8224C24.7386 23.5988 24.7386 23.2361 24.9654 23.0124L31.9115 16.1632L31.9129 16.1621C32.5148 15.5724 33.4875 15.5704 34.0887 16.1632L41.0348 23.0124C41.2615 23.2361 41.2616 23.5988 41.0348 23.8224C40.808 24.0461 40.4402 24.046 40.2133 23.8224L39.0852 22.71V30.6338C41.9329 28.7157 43.8024 25.4895 43.8024 21.8325C43.8023 15.9497 38.9658 11.1809 32.9999 11.1809Z" fill="#343537"></path>
<path d="M29.2868 52.868H37.7008V56.396H29.2868V52.868ZM36.5108 53.778H30.4768V55.472H36.5108V53.778ZM28.5028 45.224H32.8848V44.062H34.1028V45.224H38.4148V46.176H28.5028V45.224ZM33.4868 46.624C36.0488 46.624 37.4768 47.24 37.4768 48.374C37.4768 49.424 36.2728 50.026 34.1028 50.11V51.02H39.0588V51.972H27.9288V51.02H32.8848V50.11C30.7008 50.026 29.4968 49.424 29.4968 48.374C29.4968 47.24 30.9248 46.624 33.4868 46.624ZM33.4868 47.478C31.7368 47.478 30.7848 47.8 30.7848 48.374C30.7848 48.962 31.7368 49.284 33.4868 49.284C35.2508 49.284 36.2028 48.962 36.2028 48.374C36.2028 47.8 35.2508 47.478 33.4868 47.478Z" fill="black"></path>
</svg>