<svg width="67" height="68" viewBox="0 0 67 68" fill="none" xmlns="http://www.w3.org/2000/svg">
<path d="M37.3055 19.1219C37.6018 19.1219 37.842 19.3583 37.8421 19.6498C37.8421 19.9413 37.6018 20.1776 37.3055 20.1777H28.0436C27.7472 20.1777 27.507 19.9413 27.507 19.6498C27.507 19.3583 27.7472 19.1219 28.0436 19.1219H37.3055Z" fill="#343537"></path>
<path d="M37.3055 19.1219C37.6018 19.1219 37.842 19.3583 37.8421 19.6498C37.8421 19.9413 37.6018 20.1776 37.3055 20.1777H28.0436C27.7472 20.1777 27.507 19.9413 27.507 19.6498C27.507 19.3583 27.7472 19.1219 28.0436 19.1219H37.3055Z" fill="#343537"></path>
<path d="M37.3055 16.2501C37.6018 16.2502 37.8421 16.4865 37.8421 16.7781C37.842 17.0696 37.6018 17.3059 37.3055 17.306H28.0436C27.7472 17.306 27.507 17.0696 27.507 16.7781C27.507 16.4865 27.7472 16.2501 28.0436 16.2501H37.3055Z" fill="#343537"></path>
<path d="M37.3055 16.2501C37.6018 16.2502 37.8421 16.4865 37.8421 16.7781C37.842 17.0696 37.6018 17.3059 37.3055 17.306H28.0436C27.7472 17.306 27.507 17.0696 27.507 16.7781C27.507 16.4865 27.7472 16.2501 28.0436 16.2501H37.3055Z" fill="#343537"></path>
<path fill-rule="evenodd" clip-rule="evenodd" d="M23.0911 11.0156C24.1873 10.9794 25.3106 11.0175 26.3694 11.0175H36.0671C36.4332 11.0175 36.7979 11.0175 37.1466 11.0092C37.4969 11.0009 37.9245 10.9927 38.3497 11.0934L38.3495 11.0936C39.6082 11.3914 40.5165 12.5263 40.5165 13.7985V16.345C42.1467 14.2229 44.0498 12.1979 45.4918 11.5941C45.597 11.5497 45.7216 11.5665 45.8075 11.6425L45.8096 11.6446C46.1509 11.9444 46.2882 12.5695 46.241 13.4289C46.1465 15.1457 45.552 18.4188 44.1912 21.3983L44.6247 21.2991C44.8329 21.2526 45.0111 21.451 44.9338 21.6474C44.6784 22.2999 44.0045 23.6409 42.3217 25.5392C41.7028 26.2367 41.0887 26.8037 40.5165 27.2638V31.2973C40.5165 31.366 40.5028 31.4316 40.4786 31.4918H41.976V31.4897C43.4141 31.5467 44.5603 32.5349 44.5603 33.7428C44.5603 34.9506 43.4141 35.9346 41.976 35.9895V35.9959H28.8961C28.8749 35.9984 28.8534 36 28.8315 36C27.7514 36 26.6713 35.6453 25.8433 34.9207L25.8431 34.9205C25.3044 34.4486 24.8283 33.7863 24.8283 32.8643V16.5815H23.6543C23.3477 16.5815 22.8878 16.6086 22.4631 16.5164L22.4624 16.5162C21.8418 16.3805 21.2829 16.0415 20.8782 15.5496C20.4719 15.0559 20.25 14.4337 20.25 13.8005C20.25 13.6808 20.258 13.564 20.2705 13.4531V13.4522C20.4429 11.9477 21.6866 11.0608 23.0911 11.0156ZM29.9217 32.5476C29.9496 32.7271 29.9647 32.9108 29.9647 33.0924C29.9646 33.8526 29.5826 34.4649 29.0696 34.9421H41.8666C41.888 34.94 41.9116 34.938 41.933 34.938C42.7895 34.9042 43.4871 34.3678 43.4871 33.7449C43.4871 33.1219 42.8002 32.5877 41.9523 32.5476H35.2427L34.6159 33.6329C34.4142 33.9834 34.0729 34.2347 33.6758 34.3255L33.1048 34.4565C33.0061 34.4776 32.9246 34.3783 32.9675 34.2897L33.8005 32.5476H29.9217ZM37.1724 12.0646C36.8085 12.0733 36.4307 12.0733 36.0671 12.0733H26.3694C25.9207 12.0733 25.4819 12.0672 25.0474 12.0622C25.0562 12.0698 25.0653 12.0772 25.0738 12.0855C25.5874 12.5881 25.9057 13.2851 25.9057 14.056V16.3093C25.9057 16.3304 25.904 16.3512 25.9015 16.3716V32.8643C25.9015 33.3824 26.1552 33.7801 26.5566 34.1317L26.6142 34.181C26.8946 34.4142 27.216 34.5953 27.5621 34.7225C28.2562 34.3294 28.8914 33.7743 28.8914 33.0903C28.8914 32.6701 28.7863 32.2751 28.6039 31.9331C28.4966 31.7325 28.651 31.4918 28.8828 31.4918H34.3053L35.5904 28.8038C35.5921 28.8003 35.5936 28.7966 35.5952 28.7931H28.0436C27.7472 28.7931 27.507 28.5567 27.507 28.2652C27.507 27.9736 27.7472 27.7372 28.0436 27.7372H35.72C35.6712 27.232 35.7008 26.6165 35.8113 25.9213H28.0436C27.7472 25.9213 27.507 25.685 27.507 25.3934C27.507 25.1019 27.7472 24.8655 28.0436 24.8655H36.0277C36.1697 24.2923 36.3586 23.6827 36.5951 23.0494H28.0436C27.7472 23.0494 27.507 22.8131 27.507 22.5215C27.507 22.23 27.7472 21.9936 28.0436 21.9936H37.0246C37.4415 21.0489 37.9594 20.0696 38.5826 19.0944C38.8453 18.6836 39.1346 18.2512 39.4433 17.8095V13.7985C39.4433 13.0385 38.9097 12.348 38.1707 12.1387L38.0986 12.1199C37.8284 12.0559 37.5346 12.0561 37.1724 12.0646ZM39.4433 28.0785C38.8426 28.5109 37.8926 29.1431 37.1101 29.4288C37.0543 29.4499 37.0093 29.4858 36.9814 29.5365L35.8522 31.4918H39.4812C39.457 31.4316 39.4433 31.366 39.4433 31.2973V28.0785ZM41.448 20.0003C41.3965 19.9581 41.3213 19.9645 41.2784 20.0152C40.8492 20.5241 40.4843 21.0688 40.1323 21.6199C39.1106 23.2945 38.2133 25.0408 37.5329 26.88C37.4943 26.9771 37.6381 27.051 37.7004 26.9687C38.8916 25.3998 39.8854 23.7062 40.7504 21.9472C41.0252 21.356 41.2891 20.7584 41.4866 20.1249V20.127C41.4994 20.0826 41.4866 20.032 41.448 20.0003ZM24.3496 12.056C23.9424 12.0544 23.5364 12.0573 23.1271 12.0708H23.1265C22.1573 12.1019 21.4395 12.6764 21.337 13.5704C21.3282 13.6492 21.3232 13.7263 21.3232 13.8005C21.3232 14.1936 21.4619 14.581 21.7125 14.8854C21.9646 15.1918 22.3115 15.4016 22.6953 15.4855C22.9702 15.5451 23.2485 15.5257 23.6543 15.5257H24.8325V14.056C24.8325 13.577 24.6358 13.1464 24.3167 12.834C24.1066 12.6284 24.1058 12.294 24.3148 12.0873C24.326 12.0762 24.3377 12.0659 24.3496 12.056Z" fill="#343537"></path>
<path fill-rule="evenodd" clip-rule="evenodd" d="M23.0911 11.0156C24.1873 10.9794 25.3106 11.0175 26.3694 11.0175H36.0671C36.4332 11.0175 36.7979 11.0175 37.1466 11.0092C37.4969 11.0009 37.9245 10.9927 38.3497 11.0934L38.3495 11.0936C39.6082 11.3914 40.5165 12.5263 40.5165 13.7985V16.345C42.1467 14.2229 44.0498 12.1979 45.4918 11.5941C45.597 11.5497 45.7216 11.5665 45.8075 11.6425L45.8096 11.6446C46.1509 11.9444 46.2882 12.5695 46.241 13.4289C46.1465 15.1457 45.552 18.4188 44.1912 21.3983L44.6247 21.2991C44.8329 21.2526 45.0111 21.451 44.9338 21.6474C44.6784 22.2999 44.0045 23.6409 42.3217 25.5392C41.7028 26.2367 41.0887 26.8037 40.5165 27.2638V31.2973C40.5165 31.366 40.5028 31.4316 40.4786 31.4918H41.976V31.4897C43.4141 31.5467 44.5603 32.5349 44.5603 33.7428C44.5603 34.9506 43.4141 35.9346 41.976 35.9895V35.9959H28.8961C28.8749 35.9984 28.8534 36 28.8315 36C27.7514 36 26.6713 35.6453 25.8433 34.9207L25.8431 34.9205C25.3044 34.4486 24.8283 33.7863 24.8283 32.8643V16.5815H23.6543C23.3477 16.5815 22.8878 16.6086 22.4631 16.5164L22.4624 16.5162C21.8418 16.3805 21.2829 16.0415 20.8782 15.5496C20.4719 15.0559 20.25 14.4337 20.25 13.8005C20.25 13.6808 20.258 13.564 20.2705 13.4531V13.4522C20.4429 11.9477 21.6866 11.0608 23.0911 11.0156ZM29.9217 32.5476C29.9496 32.7271 29.9647 32.9108 29.9647 33.0924C29.9646 33.8526 29.5826 34.4649 29.0696 34.9421H41.8666C41.888 34.94 41.9116 34.938 41.933 34.938C42.7895 34.9042 43.4871 34.3678 43.4871 33.7449C43.4871 33.1219 42.8002 32.5877 41.9523 32.5476H35.2427L34.6159 33.6329C34.4142 33.9834 34.0729 34.2347 33.6758 34.3255L33.1048 34.4565C33.0061 34.4776 32.9246 34.3783 32.9675 34.2897L33.8005 32.5476H29.9217ZM37.1724 12.0646C36.8085 12.0733 36.4307 12.0733 36.0671 12.0733H26.3694C25.9207 12.0733 25.4819 12.0672 25.0474 12.0622C25.0562 12.0698 25.0653 12.0772 25.0738 12.0855C25.5874 12.5881 25.9057 13.2851 25.9057 14.056V16.3093C25.9057 16.3304 25.904 16.3512 25.9015 16.3716V32.8643C25.9015 33.3824 26.1552 33.7801 26.5566 34.1317L26.6142 34.181C26.8946 34.4142 27.216 34.5953 27.5621 34.7225C28.2562 34.3294 28.8914 33.7743 28.8914 33.0903C28.8914 32.6701 28.7863 32.2751 28.6039 31.9331C28.4966 31.7325 28.651 31.4918 28.8828 31.4918H34.3053L35.5904 28.8038C35.5921 28.8003 35.5936 28.7966 35.5952 28.7931H28.0436C27.7472 28.7931 27.507 28.5567 27.507 28.2652C27.507 27.9736 27.7472 27.7372 28.0436 27.7372H35.72C35.6712 27.232 35.7008 26.6165 35.8113 25.9213H28.0436C27.7472 25.9213 27.507 25.685 27.507 25.3934C27.507 25.1019 27.7472 24.8655 28.0436 24.8655H36.0277C36.1697 24.2923 36.3586 23.6827 36.5951 23.0494H28.0436C27.7472 23.0494 27.507 22.8131 27.507 22.5215C27.507 22.23 27.7472 21.9936 28.0436 21.9936H37.0246C37.4415 21.0489 37.9594 20.0696 38.5826 19.0944C38.8453 18.6836 39.1346 18.2512 39.4433 17.8095V13.7985C39.4433 13.0385 38.9097 12.348 38.1707 12.1387L38.0986 12.1199C37.8284 12.0559 37.5346 12.0561 37.1724 12.0646ZM39.4433 28.0785C38.8426 28.5109 37.8926 29.1431 37.1101 29.4288C37.0543 29.4499 37.0093 29.4858 36.9814 29.5365L35.8522 31.4918H39.4812C39.457 31.4316 39.4433 31.366 39.4433 31.2973V28.0785ZM41.448 20.0003C41.3965 19.9581 41.3213 19.9645 41.2784 20.0152C40.8492 20.5241 40.4843 21.0688 40.1323 21.6199C39.1106 23.2945 38.2133 25.0408 37.5329 26.88C37.4943 26.9771 37.6381 27.051 37.7004 26.9687C38.8916 25.3998 39.8854 23.7062 40.7504 21.9472C41.0252 21.356 41.2891 20.7584 41.4866 20.1249V20.127C41.4994 20.0826 41.4866 20.032 41.448 20.0003ZM24.3496 12.056C23.9424 12.0544 23.5364 12.0573 23.1271 12.0708H23.1265C22.1573 12.1019 21.4395 12.6764 21.337 13.5704C21.3282 13.6492 21.3232 13.7263 21.3232 13.8005C21.3232 14.1936 21.4619 14.581 21.7125 14.8854C21.9646 15.1918 22.3115 15.4016 22.6953 15.4855C22.9702 15.5451 23.2485 15.5257 23.6543 15.5257H24.8325V14.056C24.8325 13.577 24.6358 13.1464 24.3167 12.834C24.1066 12.6284 24.1058 12.294 24.3148 12.0873C24.326 12.0762 24.3377 12.0659 24.3496 12.056Z" fill="#343537"></path>
<path d="M22.1047 45.126H28.7127V46.12H26.0247V46.526C26.0247 48.108 27.1447 49.55 28.9787 50.152L28.4047 51.09C27.0047 50.628 25.9827 49.69 25.4507 48.486C24.9187 49.872 23.8267 50.964 22.3567 51.482L21.7547 50.516C23.6307 49.872 24.8207 48.276 24.8207 46.526V46.12H22.1047V45.126ZM30.1687 44.244H31.3867V47.338H33.1927V48.332H31.3867V51.65H30.1687V44.244ZM27.4527 51.972C29.9727 51.972 31.5127 52.798 31.5127 54.24C31.5127 55.696 29.9727 56.536 27.4527 56.536C24.9467 56.536 23.3927 55.696 23.3927 54.24C23.3927 52.798 24.9467 51.972 27.4527 51.972ZM27.4527 52.924C25.6607 52.924 24.5827 53.4 24.5827 54.24C24.5827 55.094 25.6607 55.584 27.4527 55.584C29.2447 55.584 30.3227 55.094 30.3227 54.24C30.3227 53.4 29.2447 52.924 27.4527 52.924ZM33.767 51.524H44.925V52.504H39.913V56.564H38.709V52.504H33.767V51.524ZM35.153 44.748H36.357V46.386H42.307V44.748H43.511V50.082H35.153V44.748ZM36.357 47.352V49.102H42.307V47.352H36.357Z" fill="#343537"></path>
</svg>