<svg width="67" height="68" viewBox="0 0 67 68" fill="none" xmlns="http://www.w3.org/2000/svg">
<g clip-path="url(#clip0_1080_6422)">
<path d="M37.0555 19.1219C37.3518 19.1219 37.592 19.3583 37.5921 19.6498C37.5921 19.9413 37.3518 20.1776 37.0555 20.1777H27.7936C27.4972 20.1777 27.257 19.9413 27.257 19.6498C27.257 19.3583 27.4972 19.1219 27.7936 19.1219H37.0555Z" fill="#1D1D1B"></path>
<path d="M37.0555 19.1219C37.3518 19.1219 37.592 19.3583 37.5921 19.6498C37.5921 19.9413 37.3518 20.1776 37.0555 20.1777H27.7936C27.4972 20.1777 27.257 19.9413 27.257 19.6498C27.257 19.3583 27.4972 19.1219 27.7936 19.1219H37.0555Z" fill="url(#paint0_linear_1080_6422)"></path>
<path d="M37.0555 16.2501C37.3518 16.2502 37.5921 16.4865 37.5921 16.7781C37.592 17.0696 37.3518 17.3059 37.0555 17.306H27.7936C27.4972 17.306 27.257 17.0696 27.257 16.7781C27.257 16.4865 27.4972 16.2501 27.7936 16.2501H37.0555Z" fill="#1D1D1B"></path>
<path d="M37.0555 16.2501C37.3518 16.2502 37.5921 16.4865 37.5921 16.7781C37.592 17.0696 37.3518 17.3059 37.0555 17.306H27.7936C27.4972 17.306 27.257 17.0696 27.257 16.7781C27.257 16.4865 27.4972 16.2501 27.7936 16.2501H37.0555Z" fill="url(#paint1_linear_1080_6422)"></path>
<path fill-rule="evenodd" clip-rule="evenodd" d="M22.8411 11.0156C23.9373 10.9794 25.0606 11.0175 26.1194 11.0175H35.8171C36.1832 11.0175 36.5479 11.0175 36.8966 11.0092C37.2469 11.0009 37.6745 10.9927 38.0997 11.0934L38.0995 11.0936C39.3582 11.3914 40.2665 12.5263 40.2665 13.7985V16.345C41.8967 14.2229 43.7998 12.1979 45.2418 11.5941C45.347 11.5497 45.4716 11.5665 45.5575 11.6425L45.5596 11.6446C45.9009 11.9444 46.0382 12.5695 45.991 13.4289C45.8965 15.1457 45.302 18.4188 43.9412 21.3983L44.3747 21.2991C44.5829 21.2526 44.7611 21.451 44.6838 21.6474C44.4284 22.2999 43.7545 23.6409 42.0717 25.5392C41.4528 26.2367 40.8387 26.8037 40.2665 27.2638V31.2973C40.2665 31.366 40.2528 31.4316 40.2286 31.4918H41.726V31.4897C43.1641 31.5467 44.3103 32.5349 44.3103 33.7428C44.3103 34.9506 43.1641 35.9346 41.726 35.9895V35.9959H28.6461C28.6249 35.9984 28.6034 36 28.5815 36C27.5014 36 26.4213 35.6453 25.5933 34.9207L25.5931 34.9205C25.0544 34.4486 24.5783 33.7863 24.5783 32.8643V16.5815H23.4043C23.0977 16.5815 22.6378 16.6086 22.2131 16.5164L22.2124 16.5162C21.5918 16.3805 21.0329 16.0415 20.6282 15.5496C20.2219 15.0559 20 14.4337 20 13.8005C20 13.6808 20.008 13.564 20.0205 13.4531V13.4522C20.1929 11.9477 21.4366 11.0608 22.8411 11.0156ZM29.6717 32.5476C29.6996 32.7271 29.7147 32.9108 29.7147 33.0924C29.7146 33.8526 29.3326 34.4649 28.8196 34.9421H41.6166C41.638 34.94 41.6616 34.938 41.683 34.938C42.5395 34.9042 43.2371 34.3678 43.2371 33.7449C43.2371 33.1219 42.5502 32.5877 41.7023 32.5476H34.9927L34.3659 33.6329C34.1642 33.9834 33.8229 34.2347 33.4258 34.3255L32.8548 34.4565C32.7561 34.4776 32.6746 34.3783 32.7175 34.2897L33.5505 32.5476H29.6717ZM36.9224 12.0646C36.5585 12.0733 36.1807 12.0733 35.8171 12.0733H26.1194C25.6707 12.0733 25.2319 12.0672 24.7974 12.0622C24.8062 12.0698 24.8153 12.0772 24.8238 12.0855C25.3374 12.5881 25.6557 13.2851 25.6557 14.056V16.3093C25.6557 16.3304 25.654 16.3512 25.6515 16.3716V32.8643C25.6515 33.3824 25.9052 33.7801 26.3066 34.1317L26.3642 34.181C26.6446 34.4142 26.966 34.5953 27.3121 34.7225C28.0062 34.3294 28.6414 33.7743 28.6414 33.0903C28.6414 32.6701 28.5363 32.2751 28.3539 31.9331C28.2466 31.7325 28.401 31.4918 28.6328 31.4918H34.0553L35.3404 28.8038C35.3421 28.8003 35.3436 28.7966 35.3452 28.7931H27.7936C27.4972 28.7931 27.257 28.5567 27.257 28.2652C27.257 27.9736 27.4972 27.7372 27.7936 27.7372H35.47C35.4212 27.232 35.4508 26.6165 35.5613 25.9213H27.7936C27.4972 25.9213 27.257 25.685 27.257 25.3934C27.257 25.1019 27.4972 24.8655 27.7936 24.8655H35.7777C35.9197 24.2923 36.1086 23.6827 36.3451 23.0494H27.7936C27.4972 23.0494 27.257 22.8131 27.257 22.5215C27.257 22.23 27.4972 21.9936 27.7936 21.9936H36.7746C37.1915 21.0489 37.7094 20.0696 38.3326 19.0944C38.5953 18.6836 38.8846 18.2512 39.1933 17.8095V13.7985C39.1933 13.0385 38.6597 12.348 37.9207 12.1387L37.8486 12.1199C37.5784 12.0559 37.2846 12.0561 36.9224 12.0646ZM39.1933 28.0785C38.5926 28.5109 37.6426 29.1431 36.8601 29.4288C36.8043 29.4499 36.7593 29.4858 36.7314 29.5365L35.6022 31.4918H39.2312C39.207 31.4316 39.1933 31.366 39.1933 31.2973V28.0785ZM41.198 20.0003C41.1465 19.9581 41.0713 19.9645 41.0284 20.0152C40.5992 20.5241 40.2343 21.0688 39.8823 21.6199C38.8606 23.2945 37.9633 25.0408 37.2829 26.88C37.2443 26.9771 37.3881 27.051 37.4504 26.9687C38.6416 25.3998 39.6354 23.7062 40.5004 21.9472C40.7752 21.356 41.0391 20.7584 41.2366 20.1249V20.127C41.2494 20.0826 41.2366 20.032 41.198 20.0003ZM24.0996 12.056C23.6924 12.0544 23.2864 12.0573 22.8771 12.0708H22.8765C21.9073 12.1019 21.1895 12.6764 21.087 13.5704C21.0782 13.6492 21.0732 13.7263 21.0732 13.8005C21.0732 14.1936 21.2119 14.581 21.4625 14.8854C21.7146 15.1918 22.0615 15.4016 22.4453 15.4855C22.7202 15.5451 22.9985 15.5257 23.4043 15.5257H24.5825V14.056C24.5825 13.577 24.3858 13.1464 24.0667 12.834C23.8566 12.6284 23.8558 12.294 24.0648 12.0873C24.076 12.0762 24.0877 12.0659 24.0996 12.056Z" fill="#1D1D1B"></path>
<path fill-rule="evenodd" clip-rule="evenodd" d="M22.8411 11.0156C23.9373 10.9794 25.0606 11.0175 26.1194 11.0175H35.8171C36.1832 11.0175 36.5479 11.0175 36.8966 11.0092C37.2469 11.0009 37.6745 10.9927 38.0997 11.0934L38.0995 11.0936C39.3582 11.3914 40.2665 12.5263 40.2665 13.7985V16.345C41.8967 14.2229 43.7998 12.1979 45.2418 11.5941C45.347 11.5497 45.4716 11.5665 45.5575 11.6425L45.5596 11.6446C45.9009 11.9444 46.0382 12.5695 45.991 13.4289C45.8965 15.1457 45.302 18.4188 43.9412 21.3983L44.3747 21.2991C44.5829 21.2526 44.7611 21.451 44.6838 21.6474C44.4284 22.2999 43.7545 23.6409 42.0717 25.5392C41.4528 26.2367 40.8387 26.8037 40.2665 27.2638V31.2973C40.2665 31.366 40.2528 31.4316 40.2286 31.4918H41.726V31.4897C43.1641 31.5467 44.3103 32.5349 44.3103 33.7428C44.3103 34.9506 43.1641 35.9346 41.726 35.9895V35.9959H28.6461C28.6249 35.9984 28.6034 36 28.5815 36C27.5014 36 26.4213 35.6453 25.5933 34.9207L25.5931 34.9205C25.0544 34.4486 24.5783 33.7863 24.5783 32.8643V16.5815H23.4043C23.0977 16.5815 22.6378 16.6086 22.2131 16.5164L22.2124 16.5162C21.5918 16.3805 21.0329 16.0415 20.6282 15.5496C20.2219 15.0559 20 14.4337 20 13.8005C20 13.6808 20.008 13.564 20.0205 13.4531V13.4522C20.1929 11.9477 21.4366 11.0608 22.8411 11.0156ZM29.6717 32.5476C29.6996 32.7271 29.7147 32.9108 29.7147 33.0924C29.7146 33.8526 29.3326 34.4649 28.8196 34.9421H41.6166C41.638 34.94 41.6616 34.938 41.683 34.938C42.5395 34.9042 43.2371 34.3678 43.2371 33.7449C43.2371 33.1219 42.5502 32.5877 41.7023 32.5476H34.9927L34.3659 33.6329C34.1642 33.9834 33.8229 34.2347 33.4258 34.3255L32.8548 34.4565C32.7561 34.4776 32.6746 34.3783 32.7175 34.2897L33.5505 32.5476H29.6717ZM36.9224 12.0646C36.5585 12.0733 36.1807 12.0733 35.8171 12.0733H26.1194C25.6707 12.0733 25.2319 12.0672 24.7974 12.0622C24.8062 12.0698 24.8153 12.0772 24.8238 12.0855C25.3374 12.5881 25.6557 13.2851 25.6557 14.056V16.3093C25.6557 16.3304 25.654 16.3512 25.6515 16.3716V32.8643C25.6515 33.3824 25.9052 33.7801 26.3066 34.1317L26.3642 34.181C26.6446 34.4142 26.966 34.5953 27.3121 34.7225C28.0062 34.3294 28.6414 33.7743 28.6414 33.0903C28.6414 32.6701 28.5363 32.2751 28.3539 31.9331C28.2466 31.7325 28.401 31.4918 28.6328 31.4918H34.0553L35.3404 28.8038C35.3421 28.8003 35.3436 28.7966 35.3452 28.7931H27.7936C27.4972 28.7931 27.257 28.5567 27.257 28.2652C27.257 27.9736 27.4972 27.7372 27.7936 27.7372H35.47C35.4212 27.232 35.4508 26.6165 35.5613 25.9213H27.7936C27.4972 25.9213 27.257 25.685 27.257 25.3934C27.257 25.1019 27.4972 24.8655 27.7936 24.8655H35.7777C35.9197 24.2923 36.1086 23.6827 36.3451 23.0494H27.7936C27.4972 23.0494 27.257 22.8131 27.257 22.5215C27.257 22.23 27.4972 21.9936 27.7936 21.9936H36.7746C37.1915 21.0489 37.7094 20.0696 38.3326 19.0944C38.5953 18.6836 38.8846 18.2512 39.1933 17.8095V13.7985C39.1933 13.0385 38.6597 12.348 37.9207 12.1387L37.8486 12.1199C37.5784 12.0559 37.2846 12.0561 36.9224 12.0646ZM39.1933 28.0785C38.5926 28.5109 37.6426 29.1431 36.8601 29.4288C36.8043 29.4499 36.7593 29.4858 36.7314 29.5365L35.6022 31.4918H39.2312C39.207 31.4316 39.1933 31.366 39.1933 31.2973V28.0785ZM41.198 20.0003C41.1465 19.9581 41.0713 19.9645 41.0284 20.0152C40.5992 20.5241 40.2343 21.0688 39.8823 21.6199C38.8606 23.2945 37.9633 25.0408 37.2829 26.88C37.2443 26.9771 37.3881 27.051 37.4504 26.9687C38.6416 25.3998 39.6354 23.7062 40.5004 21.9472C40.7752 21.356 41.0391 20.7584 41.2366 20.1249V20.127C41.2494 20.0826 41.2366 20.032 41.198 20.0003ZM24.0996 12.056C23.6924 12.0544 23.2864 12.0573 22.8771 12.0708H22.8765C21.9073 12.1019 21.1895 12.6764 21.087 13.5704C21.0782 13.6492 21.0732 13.7263 21.0732 13.8005C21.0732 14.1936 21.2119 14.581 21.4625 14.8854C21.7146 15.1918 22.0615 15.4016 22.4453 15.4855C22.7202 15.5451 22.9985 15.5257 23.4043 15.5257H24.5825V14.056C24.5825 13.577 24.3858 13.1464 24.0667 12.834C23.8566 12.6284 23.8558 12.294 24.0648 12.0873C24.076 12.0762 24.0877 12.0659 24.0996 12.056Z" fill="url(#paint2_linear_1080_6422)"></path>
</g>
<path d="M22.0767 45.084H28.7267V46.204H26.1087V46.456C26.1087 48.01 27.1587 49.452 29.0487 50.068L28.3767 51.132C27.0047 50.684 25.9967 49.774 25.4507 48.612C24.9187 49.956 23.8547 51.02 22.3847 51.524L21.6847 50.446C23.6167 49.774 24.7367 48.164 24.7367 46.47V46.204H22.0767V45.084ZM30.0707 44.202H31.4427V47.24H33.2067V48.374H31.4427V51.622H30.0707V44.202ZM27.4667 51.916C30.0007 51.916 31.5827 52.77 31.5827 54.24C31.5827 55.71 30.0007 56.578 27.4667 56.578C24.9327 56.578 23.3507 55.71 23.3507 54.24C23.3507 52.77 24.9327 51.916 27.4667 51.916ZM27.4667 53.008C25.7307 53.008 24.6947 53.442 24.6947 54.24C24.6947 55.052 25.7307 55.514 27.4667 55.514C29.2027 55.514 30.2247 55.052 30.2247 54.24C30.2247 53.442 29.2027 53.008 27.4667 53.008ZM33.739 51.482H44.967V52.574H39.997V56.592H38.625V52.574H33.739V51.482ZM35.097 44.706H36.455V46.288H42.209V44.706H43.553V50.11H35.097V44.706ZM36.455 47.38V48.99H42.209V47.38H36.455Z" fill="#5F79FF"></path>
<defs>
<linearGradient id="paint0_linear_1080_6422" x1="30.0063" y1="22.3833" x2="49.2327" y2="29.7843" gradientUnits="userSpaceOnUse">
<stop stop-color="#5F79FF"></stop>
<stop offset="1" stop-color="#5DD3C9"></stop>
</linearGradient>
<linearGradient id="paint1_linear_1080_6422" x1="30.0063" y1="22.3833" x2="49.2327" y2="29.7843" gradientUnits="userSpaceOnUse">
<stop stop-color="#5F79FF"></stop>
<stop offset="1" stop-color="#5DD3C9"></stop>
</linearGradient>
<linearGradient id="paint2_linear_1080_6422" x1="30.0063" y1="22.3833" x2="49.2327" y2="29.7843" gradientUnits="userSpaceOnUse">
<stop stop-color="#5F79FF"></stop>
<stop offset="1" stop-color="#5DD3C9"></stop>
</linearGradient>
<clipPath id="clip0_1080_6422">
<rect width="28" height="28" fill="white" transform="translate(19.375 9.5)"></rect>
</clipPath>
</defs>
</svg>