<svg width="67" height="68" viewBox="0 0 67 68" fill="none" xmlns="http://www.w3.org/2000/svg">
<path d="M32.4586 16.5513C32.4466 16.6091 32.4322 16.6838 32.4177 16.7728C32.4033 16.8619 32.3864 16.951 32.3695 17.0425C32.3527 17.134 32.3358 17.2208 32.3213 17.3002C32.3069 17.382 32.2949 17.447 32.2877 17.4975H32.2757C32.2661 17.4445 32.2588 17.382 32.2491 17.3026C32.2419 17.2255 32.2299 17.1412 32.2179 17.0522C32.2058 16.9607 32.1914 16.874 32.1769 16.7874L32.1746 16.7898C32.1601 16.7031 32.1455 16.6236 32.1334 16.5513H32.4586Z" fill="#1D1D1B"></path>
<path d="M32.4586 16.5513C32.4466 16.6091 32.4322 16.6838 32.4177 16.7728C32.4033 16.8619 32.3864 16.951 32.3695 17.0425C32.3527 17.134 32.3358 17.2208 32.3213 17.3002C32.3069 17.382 32.2949 17.447 32.2877 17.4975H32.2757C32.2661 17.4445 32.2588 17.382 32.2491 17.3026C32.2419 17.2255 32.2299 17.1412 32.2179 17.0522C32.2058 16.9607 32.1914 16.874 32.1769 16.7874L32.1746 16.7898C32.1601 16.7031 32.1455 16.6236 32.1334 16.5513H32.4586Z" fill="url(#paint0_linear_1080_6438)"></path>
<path d="M34.8061 16.549C34.7941 16.6092 34.7796 16.6814 34.7676 16.7681C34.7555 16.8548 34.741 16.9438 34.729 17.0352C34.7146 17.1267 34.7027 17.2134 34.693 17.2953C34.681 17.3771 34.6713 17.4446 34.6641 17.4951H34.6521C34.6425 17.4518 34.6328 17.3941 34.6232 17.3171C34.6112 17.2401 34.5991 17.1582 34.5846 17.0691C34.5702 16.98 34.5558 16.8909 34.5414 16.7994H34.5437C34.5293 16.7079 34.5124 16.626 34.4955 16.549H34.8061Z" fill="#1D1D1B"></path>
<path d="M34.8061 16.549C34.7941 16.6092 34.7796 16.6814 34.7676 16.7681C34.7555 16.8548 34.741 16.9438 34.729 17.0352C34.7146 17.1267 34.7027 17.2134 34.693 17.2953C34.681 17.3771 34.6713 17.4446 34.6641 17.4951H34.6521C34.6425 17.4518 34.6328 17.3941 34.6232 17.3171C34.6112 17.2401 34.5991 17.1582 34.5846 17.0691C34.5702 16.98 34.5558 16.8909 34.5414 16.7994H34.5437C34.5293 16.7079 34.5124 16.626 34.4955 16.549H34.8061Z" fill="url(#paint1_linear_1080_6438)"></path>
<path d="M33.4699 14.9454C33.4795 14.996 33.4866 15.0585 33.4962 15.1307C33.5059 15.2029 33.5132 15.28 33.5228 15.3595H33.5205C33.5301 15.4389 33.5372 15.5208 33.5468 15.6002C33.5564 15.6797 33.5661 15.7543 33.5734 15.8217H33.3639C33.3879 15.6749 33.4096 15.5185 33.4264 15.3524C33.4433 15.1863 33.4579 15.0514 33.4699 14.9454Z" fill="#1D1D1B"></path>
<path d="M33.4699 14.9454C33.4795 14.996 33.4866 15.0585 33.4962 15.1307C33.5059 15.2029 33.5132 15.28 33.5228 15.3595H33.5205C33.5301 15.4389 33.5372 15.5208 33.5468 15.6002C33.5564 15.6797 33.5661 15.7543 33.5734 15.8217H33.3639C33.3879 15.6749 33.4096 15.5185 33.4264 15.3524C33.4433 15.1863 33.4579 15.0514 33.4699 14.9454Z" fill="url(#paint2_linear_1080_6438)"></path>
<path fill-rule="evenodd" clip-rule="evenodd" d="M33.4988 10C36.8214 10.0001 39.5131 12.692 39.5131 16.0145C39.5131 17.3387 39.0869 18.5617 38.3622 19.5537H36.5061L30.2821 19.5539L28.6352 19.5537C27.9129 18.5593 27.4843 17.3363 27.4843 16.0145C27.4843 12.6919 30.1762 10 33.4988 10ZM31.1175 15.8243H30.6023V16.549H31.2811L31.5943 17.9334C31.6304 18.1019 31.705 18.2199 31.8158 18.2849C31.9241 18.3499 32.0759 18.3837 32.2661 18.3837C32.343 18.3837 32.4152 18.3764 32.485 18.3667C32.5548 18.3571 32.6199 18.3355 32.6801 18.3042C32.7379 18.2729 32.7885 18.2296 32.8294 18.1718C32.8679 18.114 32.8992 18.0393 32.9209 17.9454L33.2122 16.5466H33.7081L34.0067 17.9454C34.0284 18.0297 34.0621 18.0995 34.1055 18.1573C34.1512 18.215 34.2043 18.2609 34.262 18.2946C34.3222 18.3282 34.3872 18.3524 34.457 18.3644C34.5268 18.3764 34.599 18.3837 34.6712 18.3837C34.8638 18.3837 35.0108 18.3499 35.1167 18.2849C35.2226 18.2199 35.2948 18.1019 35.3333 17.9334L35.6439 16.549H36.1978C36.282 16.549 36.3351 16.52 36.3591 16.4599L36.3566 16.4622C36.3806 16.402 36.3928 16.313 36.3928 16.1878C36.3928 16.0627 36.3806 15.9736 36.3566 15.9134C36.3349 15.8532 36.2795 15.8243 36.1953 15.8243H35.8005L36.2964 13.6454H35.4247L34.9481 15.8243H34.3389L33.9249 13.8427H33.01L32.603 15.8243H31.9747L31.4979 13.6454H30.6336L31.1175 15.8243Z" fill="#1D1D1B"></path>
<path fill-rule="evenodd" clip-rule="evenodd" d="M33.4988 10C36.8214 10.0001 39.5131 12.692 39.5131 16.0145C39.5131 17.3387 39.0869 18.5617 38.3622 19.5537H36.5061L30.2821 19.5539L28.6352 19.5537C27.9129 18.5593 27.4843 17.3363 27.4843 16.0145C27.4843 12.6919 30.1762 10 33.4988 10ZM31.1175 15.8243H30.6023V16.549H31.2811L31.5943 17.9334C31.6304 18.1019 31.705 18.2199 31.8158 18.2849C31.9241 18.3499 32.0759 18.3837 32.2661 18.3837C32.343 18.3837 32.4152 18.3764 32.485 18.3667C32.5548 18.3571 32.6199 18.3355 32.6801 18.3042C32.7379 18.2729 32.7885 18.2296 32.8294 18.1718C32.8679 18.114 32.8992 18.0393 32.9209 17.9454L33.2122 16.5466H33.7081L34.0067 17.9454C34.0284 18.0297 34.0621 18.0995 34.1055 18.1573C34.1512 18.215 34.2043 18.2609 34.262 18.2946C34.3222 18.3282 34.3872 18.3524 34.457 18.3644C34.5268 18.3764 34.599 18.3837 34.6712 18.3837C34.8638 18.3837 35.0108 18.3499 35.1167 18.2849C35.2226 18.2199 35.2948 18.1019 35.3333 17.9334L35.6439 16.549H36.1978C36.282 16.549 36.3351 16.52 36.3591 16.4599L36.3566 16.4622C36.3806 16.402 36.3928 16.313 36.3928 16.1878C36.3928 16.0627 36.3806 15.9736 36.3566 15.9134C36.3349 15.8532 36.2795 15.8243 36.1953 15.8243H35.8005L36.2964 13.6454H35.4247L34.9481 15.8243H34.3389L33.9249 13.8427H33.01L32.603 15.8243H31.9747L31.4979 13.6454H30.6336L31.1175 15.8243Z" fill="url(#paint3_linear_1080_6438)"></path>
<path d="M31.1358 24.6601C31.6427 24.686 32.0472 25.1064 32.0472 25.6197V29.4574C32.0471 29.9872 31.6162 30.4181 31.0864 30.4182L31.085 30.4179L31.0838 30.4182C30.554 30.4182 30.1232 29.9872 30.1231 29.4574V25.6197C30.1231 25.0898 30.554 24.659 31.0838 24.659H31.0864L31.1358 24.6601Z" fill="#1D1D1B"></path>
<path d="M31.1358 24.6601C31.6427 24.686 32.0472 25.1064 32.0472 25.6197V29.4574C32.0471 29.9872 31.6162 30.4181 31.0864 30.4182L31.085 30.4179L31.0838 30.4182C30.554 30.4182 30.1232 29.9872 30.1231 29.4574V25.6197C30.1231 25.0898 30.554 24.659 31.0838 24.659H31.0864L31.1358 24.6601Z" fill="url(#paint4_linear_1080_6438)"></path>
<path d="M35.9632 24.6601C36.0117 24.6626 36.0593 24.6686 36.1057 24.678C36.1107 24.679 36.1155 24.6804 36.1205 24.6815C36.1304 24.6837 36.1403 24.6856 36.1501 24.6881C36.1585 24.6902 36.1667 24.6928 36.175 24.6952C36.1807 24.6968 36.1864 24.6982 36.192 24.6999L36.199 24.702C36.2047 24.7038 36.2103 24.7058 36.2159 24.7076C36.2244 24.7104 36.2328 24.7133 36.2411 24.7163C36.2449 24.7177 36.2486 24.7191 36.2524 24.7206C36.2633 24.7247 36.2741 24.729 36.2848 24.7335C36.2874 24.7346 36.2899 24.7357 36.2924 24.7368C36.3179 24.7478 36.3428 24.7597 36.3671 24.7728C36.3711 24.7749 36.375 24.7772 36.3789 24.7793C36.389 24.785 36.3991 24.7908 36.409 24.7967C36.4119 24.7985 36.4148 24.8004 36.4177 24.8022C36.4265 24.8076 36.4352 24.8131 36.4438 24.8188C36.4489 24.8223 36.454 24.8257 36.4591 24.8292C36.4676 24.8351 36.4761 24.8411 36.4845 24.8473C36.4872 24.8494 36.4899 24.8516 36.4927 24.8536C36.502 24.8607 36.5114 24.8679 36.5204 24.8753C36.5239 24.8781 36.5273 24.8811 36.5308 24.884C36.5383 24.8903 36.5458 24.8967 36.5531 24.9033C36.5572 24.9069 36.5611 24.9106 36.5651 24.9143C36.5723 24.9209 36.5793 24.9277 36.5863 24.9345C36.591 24.9392 36.5957 24.9439 36.6004 24.9486C36.6062 24.9546 36.6119 24.9606 36.6175 24.9667C36.6213 24.9708 36.6251 24.9748 36.6288 24.979C36.6363 24.9873 36.6435 24.9958 36.6507 25.0044C36.653 25.0071 36.6553 25.0098 36.6575 25.0126C36.684 25.045 36.7085 25.079 36.7306 25.1146C36.733 25.1184 36.7352 25.1222 36.7375 25.1259C36.7501 25.147 36.7619 25.1687 36.773 25.1908C36.776 25.1969 36.7792 25.203 36.7821 25.2092C36.7923 25.2306 36.8015 25.2525 36.8101 25.2748C36.8124 25.2808 36.8147 25.2868 36.8169 25.2929C36.8306 25.3306 36.8419 25.3695 36.8508 25.4093C36.8523 25.4159 36.8539 25.4225 36.8553 25.4292C36.8677 25.4908 36.8745 25.5545 36.8745 25.6197V29.4574C36.8745 29.8613 36.6238 30.2075 36.27 30.3493C36.2355 30.3631 36.1999 30.375 36.1635 30.3848C36.0838 30.4063 36 30.4182 35.9136 30.4182C35.897 30.4182 35.8806 30.4176 35.8642 30.4167C35.8315 30.4151 35.7993 30.4117 35.7676 30.4069C35.3069 30.3363 34.9531 29.9376 34.9531 29.4574V25.6197C34.9531 25.0898 35.384 24.659 35.9138 24.659L35.9632 24.6601Z" fill="#1D1D1B"></path>
<path d="M35.9632 24.6601C36.0117 24.6626 36.0593 24.6686 36.1057 24.678C36.1107 24.679 36.1155 24.6804 36.1205 24.6815C36.1304 24.6837 36.1403 24.6856 36.1501 24.6881C36.1585 24.6902 36.1667 24.6928 36.175 24.6952C36.1807 24.6968 36.1864 24.6982 36.192 24.6999L36.199 24.702C36.2047 24.7038 36.2103 24.7058 36.2159 24.7076C36.2244 24.7104 36.2328 24.7133 36.2411 24.7163C36.2449 24.7177 36.2486 24.7191 36.2524 24.7206C36.2633 24.7247 36.2741 24.729 36.2848 24.7335C36.2874 24.7346 36.2899 24.7357 36.2924 24.7368C36.3179 24.7478 36.3428 24.7597 36.3671 24.7728C36.3711 24.7749 36.375 24.7772 36.3789 24.7793C36.389 24.785 36.3991 24.7908 36.409 24.7967C36.4119 24.7985 36.4148 24.8004 36.4177 24.8022C36.4265 24.8076 36.4352 24.8131 36.4438 24.8188C36.4489 24.8223 36.454 24.8257 36.4591 24.8292C36.4676 24.8351 36.4761 24.8411 36.4845 24.8473C36.4872 24.8494 36.4899 24.8516 36.4927 24.8536C36.502 24.8607 36.5114 24.8679 36.5204 24.8753C36.5239 24.8781 36.5273 24.8811 36.5308 24.884C36.5383 24.8903 36.5458 24.8967 36.5531 24.9033C36.5572 24.9069 36.5611 24.9106 36.5651 24.9143C36.5723 24.9209 36.5793 24.9277 36.5863 24.9345C36.591 24.9392 36.5957 24.9439 36.6004 24.9486C36.6062 24.9546 36.6119 24.9606 36.6175 24.9667C36.6213 24.9708 36.6251 24.9748 36.6288 24.979C36.6363 24.9873 36.6435 24.9958 36.6507 25.0044C36.653 25.0071 36.6553 25.0098 36.6575 25.0126C36.684 25.045 36.7085 25.079 36.7306 25.1146C36.733 25.1184 36.7352 25.1222 36.7375 25.1259C36.7501 25.147 36.7619 25.1687 36.773 25.1908C36.776 25.1969 36.7792 25.203 36.7821 25.2092C36.7923 25.2306 36.8015 25.2525 36.8101 25.2748C36.8124 25.2808 36.8147 25.2868 36.8169 25.2929C36.8306 25.3306 36.8419 25.3695 36.8508 25.4093C36.8523 25.4159 36.8539 25.4225 36.8553 25.4292C36.8677 25.4908 36.8745 25.5545 36.8745 25.6197V29.4574C36.8745 29.8613 36.6238 30.2075 36.27 30.3493C36.2355 30.3631 36.1999 30.375 36.1635 30.3848C36.0838 30.4063 36 30.4182 35.9136 30.4182C35.897 30.4182 35.8806 30.4176 35.8642 30.4167C35.8315 30.4151 35.7993 30.4117 35.7676 30.4069C35.3069 30.3363 34.9531 29.9376 34.9531 29.4574V25.6197C34.9531 25.0898 35.384 24.659 35.9138 24.659L35.9632 24.6601Z" fill="url(#paint5_linear_1080_6438)"></path>
<path fill-rule="evenodd" clip-rule="evenodd" d="M40.286 18.7143C41.6117 18.7143 42.6864 19.7889 42.6864 21.1147V21.264C42.6864 21.9209 42.4222 22.5159 41.9947 22.9494C42.7816 24.0163 43.25 25.3355 43.25 26.7633V27.0909C43.2499 29.167 42.4034 31.046 41.0384 32.4031L41.7438 33.7765C42.2012 34.6696 41.5532 35.7344 40.5484 35.7344H38.5766C38.2282 35.7344 37.8994 35.5956 37.6566 35.3572L36.7937 34.5101C36.4564 34.5566 36.11 34.5834 35.7549 34.5834H31.2428C30.891 34.5834 30.5445 34.5589 30.2035 34.5103L29.3472 35.3532C29.0993 35.6011 28.7671 35.7344 28.4234 35.7344H26.4514C25.4466 35.7343 24.7986 34.6701 25.256 33.7769L25.9614 32.4031C24.5985 31.0481 23.7501 29.1691 23.75 27.0909V26.7633C23.75 25.3345 24.2156 24.0148 25.0042 22.9487C24.5771 22.5153 24.3134 21.9205 24.3134 21.264V21.1147C24.3134 19.789 25.3881 18.7143 26.7138 18.7143H40.286ZM26.0354 23.5807C25.3566 24.4608 24.9538 25.5633 24.9538 26.7633V27.0909C24.9539 28.978 25.7859 30.6695 27.101 31.8219L27.4544 32.1315L26.3272 34.3264C26.2798 34.4203 26.349 34.5305 26.4514 34.5305H28.4234C28.4551 34.5305 28.4791 34.5192 28.496 34.5023L28.4977 34.5004L28.4996 34.4988L29.4288 33.5839L29.4311 33.5818L29.4763 33.5404C29.7068 33.3414 30.0071 33.2639 30.2924 33.3069L30.2955 33.3074C30.6033 33.3554 30.919 33.3796 31.2428 33.3796H35.7549C36.0759 33.3796 36.3928 33.3534 36.7062 33.3067C37.0057 33.2618 37.3342 33.3492 37.5722 33.5872L38.5 34.4983C38.5219 34.5198 38.5495 34.5305 38.5766 34.5305H40.5484C40.6508 34.5305 40.7202 34.4203 40.6728 34.3264L39.5456 32.1315L39.899 31.8219C41.2164 30.6672 42.0461 28.9758 42.0462 27.0909V26.7633C42.0462 25.5664 41.6418 24.4637 40.9634 23.5809C40.8741 23.601 40.7831 23.6171 40.6906 23.6296C40.5591 23.6519 40.424 23.6644 40.286 23.6644H26.7138C26.5743 23.6644 26.4376 23.6517 26.3047 23.6289C26.2134 23.6165 26.1236 23.6006 26.0354 23.5807ZM26.7138 19.9181C26.0529 19.9181 25.5172 20.4538 25.5172 21.1147V21.264C25.5172 21.8476 25.9352 22.3333 26.4881 22.4389C26.5624 22.448 26.6377 22.4535 26.7138 22.4535H40.286C40.362 22.4535 40.4372 22.448 40.5115 22.4389C41.0645 22.3334 41.4826 21.8477 41.4826 21.264V21.1147C41.4825 20.4538 40.9469 19.9181 40.286 19.9181H26.7138Z" fill="#1D1D1B"></path>
<path fill-rule="evenodd" clip-rule="evenodd" d="M40.286 18.7143C41.6117 18.7143 42.6864 19.7889 42.6864 21.1147V21.264C42.6864 21.9209 42.4222 22.5159 41.9947 22.9494C42.7816 24.0163 43.25 25.3355 43.25 26.7633V27.0909C43.2499 29.167 42.4034 31.046 41.0384 32.4031L41.7438 33.7765C42.2012 34.6696 41.5532 35.7344 40.5484 35.7344H38.5766C38.2282 35.7344 37.8994 35.5956 37.6566 35.3572L36.7937 34.5101C36.4564 34.5566 36.11 34.5834 35.7549 34.5834H31.2428C30.891 34.5834 30.5445 34.5589 30.2035 34.5103L29.3472 35.3532C29.0993 35.6011 28.7671 35.7344 28.4234 35.7344H26.4514C25.4466 35.7343 24.7986 34.6701 25.256 33.7769L25.9614 32.4031C24.5985 31.0481 23.7501 29.1691 23.75 27.0909V26.7633C23.75 25.3345 24.2156 24.0148 25.0042 22.9487C24.5771 22.5153 24.3134 21.9205 24.3134 21.264V21.1147C24.3134 19.789 25.3881 18.7143 26.7138 18.7143H40.286ZM26.0354 23.5807C25.3566 24.4608 24.9538 25.5633 24.9538 26.7633V27.0909C24.9539 28.978 25.7859 30.6695 27.101 31.8219L27.4544 32.1315L26.3272 34.3264C26.2798 34.4203 26.349 34.5305 26.4514 34.5305H28.4234C28.4551 34.5305 28.4791 34.5192 28.496 34.5023L28.4977 34.5004L28.4996 34.4988L29.4288 33.5839L29.4311 33.5818L29.4763 33.5404C29.7068 33.3414 30.0071 33.2639 30.2924 33.3069L30.2955 33.3074C30.6033 33.3554 30.919 33.3796 31.2428 33.3796H35.7549C36.0759 33.3796 36.3928 33.3534 36.7062 33.3067C37.0057 33.2618 37.3342 33.3492 37.5722 33.5872L38.5 34.4983C38.5219 34.5198 38.5495 34.5305 38.5766 34.5305H40.5484C40.6508 34.5305 40.7202 34.4203 40.6728 34.3264L39.5456 32.1315L39.899 31.8219C41.2164 30.6672 42.0461 28.9758 42.0462 27.0909V26.7633C42.0462 25.5664 41.6418 24.4637 40.9634 23.5809C40.8741 23.601 40.7831 23.6171 40.6906 23.6296C40.5591 23.6519 40.424 23.6644 40.286 23.6644H26.7138C26.5743 23.6644 26.4376 23.6517 26.3047 23.6289C26.2134 23.6165 26.1236 23.6006 26.0354 23.5807ZM26.7138 19.9181C26.0529 19.9181 25.5172 20.4538 25.5172 21.1147V21.264C25.5172 21.8476 25.9352 22.3333 26.4881 22.4389C26.5624 22.448 26.6377 22.4535 26.7138 22.4535H40.286C40.362 22.4535 40.4372 22.448 40.5115 22.4389C41.0645 22.3334 41.4826 21.8477 41.4826 21.264V21.1147C41.4825 20.4538 40.9469 19.9181 40.286 19.9181H26.7138Z" fill="url(#paint6_linear_1080_6438)"></path>
<path d="M24.8345 44.188H26.1925V56.606H24.8345V49.76H22.3425V48.64H24.8345V44.188ZM16.2665 45.434H23.0565V46.554H20.3545V47.618C20.3545 49.732 21.6145 52 23.5185 52.868L22.7065 53.96C21.2925 53.26 20.2285 51.846 19.6685 50.18C19.1225 51.958 18.0305 53.47 16.6025 54.212L15.8045 53.12C17.6945 52.21 18.9685 49.858 18.9685 47.618V46.554H16.2665V45.434ZM29.3148 44.818H37.7148V45.756C37.7148 46.75 37.7148 47.842 37.4068 49.34H39.1288V50.46H27.9008V49.34H36.0488C36.3568 47.926 36.3708 46.876 36.3708 45.938H29.3148V44.818ZM29.2588 51.986H37.7288V56.452H29.2588V51.986ZM36.3848 53.078H30.6028V55.346H36.3848V53.078ZM39.8432 50.698H44.7572V49.662H41.2992V44.552H49.6992V45.616H42.6712V46.554H49.4052V47.59H42.6712V48.598H49.7832V49.662H46.1292V50.698H51.0432V51.79H39.8432V50.698ZM45.4432 52.588C48.1452 52.588 49.6992 53.274 49.6992 54.59C49.6992 55.892 48.1452 56.578 45.4432 56.578C42.7272 56.578 41.1732 55.892 41.1732 54.59C41.1732 53.274 42.7272 52.588 45.4432 52.588ZM45.4432 53.596C43.5532 53.596 42.5592 53.932 42.5592 54.59C42.5592 55.234 43.5532 55.556 45.4432 55.556C47.3192 55.556 48.3272 55.234 48.3272 54.59C48.3272 53.932 47.3192 53.596 45.4432 53.596Z" fill="#5F79FF"></path>
<defs>
<linearGradient id="paint0_linear_1080_6438" x1="31.2547" y1="20.6284" x2="46.761" y2="24.6637" gradientUnits="userSpaceOnUse">
<stop stop-color="#5F79FF"></stop>
<stop offset="1" stop-color="#5DD3C9"></stop>
</linearGradient>
<linearGradient id="paint1_linear_1080_6438" x1="31.2547" y1="20.6284" x2="46.761" y2="24.6637" gradientUnits="userSpaceOnUse">
<stop stop-color="#5F79FF"></stop>
<stop offset="1" stop-color="#5DD3C9"></stop>
</linearGradient>
<linearGradient id="paint2_linear_1080_6438" x1="31.2547" y1="20.6284" x2="46.761" y2="24.6637" gradientUnits="userSpaceOnUse">
<stop stop-color="#5F79FF"></stop>
<stop offset="1" stop-color="#5DD3C9"></stop>
</linearGradient>
<linearGradient id="paint3_linear_1080_6438" x1="31.2547" y1="20.6284" x2="46.761" y2="24.6637" gradientUnits="userSpaceOnUse">
<stop stop-color="#5F79FF"></stop>
<stop offset="1" stop-color="#5DD3C9"></stop>
</linearGradient>
<linearGradient id="paint4_linear_1080_6438" x1="31.2547" y1="20.6284" x2="46.761" y2="24.6637" gradientUnits="userSpaceOnUse">
<stop stop-color="#5F79FF"></stop>
<stop offset="1" stop-color="#5DD3C9"></stop>
</linearGradient>
<linearGradient id="paint5_linear_1080_6438" x1="31.2547" y1="20.6284" x2="46.761" y2="24.6637" gradientUnits="userSpaceOnUse">
<stop stop-color="#5F79FF"></stop>
<stop offset="1" stop-color="#5DD3C9"></stop>
</linearGradient>
<linearGradient id="paint6_linear_1080_6438" x1="31.2547" y1="20.6284" x2="46.761" y2="24.6637" gradientUnits="userSpaceOnUse">
<stop stop-color="#5F79FF"></stop>
<stop offset="1" stop-color="#5DD3C9"></stop>
</linearGradient>
</defs>
</svg>