<svg width="67" height="68" viewBox="0 0 67 68" fill="none" xmlns="http://www.w3.org/2000/svg">
<path fill-rule="evenodd" clip-rule="evenodd" d="M33.9999 10C40.6273 10 45.9999 15.2976 46 21.8325C46 25.6929 44.1248 29.1211 41.2239 31.281V34.5554C41.2239 35.0561 40.7282 35.4294 40.3306 35.6537C39.8491 35.9277 39.3197 36.1047 38.788 36.2583C37.3532 36.6763 35.8706 36.9574 34.3737 36.9952H34.3234C34.2156 36.9999 34.1053 37 33.9975 37C33.8898 37 33.7795 36.9975 33.6717 36.9952H33.6214C32.1245 36.9574 30.6418 36.6763 29.2071 36.2583C28.6778 36.1024 28.1462 35.9253 27.6648 35.6537C27.2671 35.4294 26.7712 35.0585 26.7712 34.5554V31.2773C23.8731 29.1172 22 25.6907 22 21.8325C22.0001 15.2976 27.3726 10 33.9999 10ZM34.2672 16.9733C34.1211 16.8292 33.8818 16.8274 33.7316 16.9746L29.0733 21.5677C29.0735 21.5725 29.0743 21.5776 29.0743 21.5824V30.6894C29.0743 30.7088 29.0769 30.7277 29.0813 30.7459H31.7665V27.5176C31.7665 26.7536 32.3944 26.13 33.1737 26.13H34.8239C35.5987 26.1301 36.2311 26.7491 36.2311 27.5176V30.7459H38.9164C38.9208 30.7277 38.9234 30.7088 38.9234 30.6894V21.5824C38.9234 21.5767 38.9239 21.5708 38.9241 21.5651L34.2672 16.9733ZM33.1737 27.2754C33.0381 27.2754 32.9284 27.3841 32.9284 27.5176V30.7459H35.0695V27.5176C35.0695 27.3839 34.9593 27.2755 34.8239 27.2754H33.1737ZM33.9999 11.1809C28.034 11.1809 23.1977 15.9498 23.1976 21.8325C23.1976 25.4887 25.0662 28.7142 27.9127 30.6324V22.7124L26.7869 23.8224C26.5601 24.0461 26.1923 24.046 25.9654 23.8224C25.7386 23.5988 25.7386 23.2361 25.9654 23.0124L32.9115 16.1632L32.9129 16.1621C33.5148 15.5724 34.4875 15.5704 35.0887 16.1632L42.0348 23.0124C42.2615 23.2361 42.2616 23.5988 42.0348 23.8224C41.808 24.0461 41.4402 24.046 41.2133 23.8224L40.0852 22.71V30.6338C42.9329 28.7157 44.8024 25.4895 44.8024 21.8325C44.8023 15.9497 39.9658 11.1809 33.9999 11.1809Z" fill="#1D1D1B"></path>
<path fill-rule="evenodd" clip-rule="evenodd" d="M33.9999 10C40.6273 10 45.9999 15.2976 46 21.8325C46 25.6929 44.1248 29.1211 41.2239 31.281V34.5554C41.2239 35.0561 40.7282 35.4294 40.3306 35.6537C39.8491 35.9277 39.3197 36.1047 38.788 36.2583C37.3532 36.6763 35.8706 36.9574 34.3737 36.9952H34.3234C34.2156 36.9999 34.1053 37 33.9975 37C33.8898 37 33.7795 36.9975 33.6717 36.9952H33.6214C32.1245 36.9574 30.6418 36.6763 29.2071 36.2583C28.6778 36.1024 28.1462 35.9253 27.6648 35.6537C27.2671 35.4294 26.7712 35.0585 26.7712 34.5554V31.2773C23.8731 29.1172 22 25.6907 22 21.8325C22.0001 15.2976 27.3726 10 33.9999 10ZM34.2672 16.9733C34.1211 16.8292 33.8818 16.8274 33.7316 16.9746L29.0733 21.5677C29.0735 21.5725 29.0743 21.5776 29.0743 21.5824V30.6894C29.0743 30.7088 29.0769 30.7277 29.0813 30.7459H31.7665V27.5176C31.7665 26.7536 32.3944 26.13 33.1737 26.13H34.8239C35.5987 26.1301 36.2311 26.7491 36.2311 27.5176V30.7459H38.9164C38.9208 30.7277 38.9234 30.7088 38.9234 30.6894V21.5824C38.9234 21.5767 38.9239 21.5708 38.9241 21.5651L34.2672 16.9733ZM33.1737 27.2754C33.0381 27.2754 32.9284 27.3841 32.9284 27.5176V30.7459H35.0695V27.5176C35.0695 27.3839 34.9593 27.2755 34.8239 27.2754H33.1737ZM33.9999 11.1809C28.034 11.1809 23.1977 15.9498 23.1976 21.8325C23.1976 25.4887 25.0662 28.7142 27.9127 30.6324V22.7124L26.7869 23.8224C26.5601 24.0461 26.1923 24.046 25.9654 23.8224C25.7386 23.5988 25.7386 23.2361 25.9654 23.0124L32.9115 16.1632L32.9129 16.1621C33.5148 15.5724 34.4875 15.5704 35.0887 16.1632L42.0348 23.0124C42.2615 23.2361 42.2616 23.5988 42.0348 23.8224C41.808 24.0461 41.4402 24.046 41.2133 23.8224L40.0852 22.71V30.6338C42.9329 28.7157 44.8024 25.4895 44.8024 21.8325C44.8023 15.9497 39.9658 11.1809 33.9999 11.1809Z" fill="url(#paint0_linear_1080_6397)"></path>
<path d="M29.2448 52.868H37.7288V56.438H29.2448V52.868ZM36.3848 53.904H30.5888V55.402H36.3848V53.904ZM28.4608 45.168H32.8148V44.048H34.1868V45.168H38.4708V46.218H28.4608V45.168ZM33.5008 46.638C36.0908 46.638 37.5468 47.24 37.5468 48.402C37.5468 49.438 36.3428 50.054 34.1868 50.152V50.964H39.0868V52.042H27.9008V50.964H32.8148V50.152C30.6448 50.054 29.4408 49.438 29.4408 48.402C29.4408 47.24 30.8968 46.638 33.5008 46.638ZM33.5008 47.576C31.7928 47.576 30.8968 47.856 30.8968 48.402C30.8968 48.934 31.7928 49.214 33.5008 49.214C35.1948 49.214 36.0908 48.934 36.0908 48.402C36.0908 47.856 35.1948 47.576 33.5008 47.576Z" fill="#5F79FF"></path>
<defs>
<linearGradient id="paint0_linear_1080_6397" x1="31.2366" y1="20.7755" x2="49.0972" y2="27.4798" gradientUnits="userSpaceOnUse">
<stop stop-color="#5F79FF"></stop>
<stop offset="1" stop-color="#5DD3C9"></stop>
</linearGradient>
</defs>
</svg>